# Rhino

mtllib my_model.mtl
usemtl Custom
v 0 0 12000
v 0 14000 12000
v 23000 0 12000
v 23000 14000 12000
v 23000 0 12000
v 23000 14000 12000
v 23000 0 0
v 23000 14000 0
v 23000 0 0
v 23000 14000 0
v 0 0 0
v 0 14000 0
v 0 0 0
v 0 14000 0
v 0 0 12000
v 0 14000 12000
v 0 0 12000
v 23000 0 12000
v 23000 0 0
v 0 0 0
v 0 14000 12000
v 23000 14000 12000
v 23000 14000 0
v 0 14000 0
vt 0 0
vt 0 0.68421006202697754
vt 0.32857143878936768 0
vt 0.32857143878936768 0.68421006202697754
vt 0.32857143878936768 0
vt 0.32857143878936768 0.68421006202697754
vt 0.5 0
vt 0.5 0.68421006202697754
vt 0.5 0
vt 0.5 0.68421006202697754
vt 0.82857143878936768 0
vt 0.82857143878936768 0.68421006202697754
vt 0.82857143878936768 0
vt 0.82857143878936768 0.68421006202697754
vt 1 0
vt 1 0.68421006202697754
vt 0 1
vt 0.32857143878936768 1
vt 0.32857143878936768 0.68421071767807007
vt 0 0.68421071767807007
vt 0.67142856121063232 0.68421071767807007
vt 1 0.68421071767807007
vt 1 1
vt 0.67142856121063232 1
vn 0 0 1
vn 0 0 1
vn 0 0 1
vn 0 0 1
vn 1 0 0
vn 1 0 0
vn 1 0 0
vn 1 0 0
vn 0 0 -1
vn 0 0 -1
vn 0 0 -1
vn 0 0 -1
vn -1 0 0
vn -1 0 0
vn -1 0 0
vn -1 0 0
vn 0 -1 0
vn 0 -1 0
vn 0 -1 0
vn 0 -1 0
vn 0 1 0
vn 0 1 0
vn 0 1 0
vn 0 1 0
f 1/1/1 3/3/3 4/4/4 2/2/2
f 5/5/5 7/7/7 8/8/8 6/6/6
f 9/9/9 11/11/11 12/12/12 10/10/10
f 13/13/13 15/15/15 16/16/16 14/14/14
f 18/18/18 17/17/17 20/20/20
f 20/20/20 19/19/19 18/18/18
f 22/22/22 24/24/24 21/21/21
f 24/24/24 22/22/22 23/23/23
